# xmcd
#
# Track frame offsets: 
#        150
#        18430
#        36012
#        53605
#        67552
#        91636
#        109969
#        131146
#        151120
#        170794
#        191715
#        210289
#
# Disc length: 3022 seconds
#
# Revision: 1
# Processed by: cddbd v1.5.2PL0 Copyright (c) Steve Scherf et al.
# Submitted via: ExactAudioCopy v1.0b3
#
DISCID=910bcc0c
DTITLE=岩佐美咲 - リクエスト・カバーズ [限定盤]
DYEAR=2013
DGENRE=JPop
TTITLE0=越冬つばめ
TTITLE1=つぐない
TTITLE2=北の宿から
TTITLE3=ブルーライト・ヨコハマ
TTITLE4=ハナミズキ
TTITLE5=なごり雪
TTITLE6=愛のままで…
TTITLE7=待つわ
TTITLE8=涙そうそう
TTITLE9=ラヴ・イズ・オーヴァー
TTITLE10=時の流れに身をまかせ
TTITLE11=赤いスイートピー
EXTD=
EXTT0=
EXTT1=
EXTT2=
EXTT3=
EXTT4=
EXTT5=
EXTT6=
EXTT7=
EXTT8=
EXTT9=
EXTT10=
EXTT11=
PLAYORDER=
